<svg width="43" height="43" viewBox="0 0 43 43" fill="none" xmlns="http://www.w3.org/2000/svg">
<path d="M6.64389 38.3457L3.33838 1.26929H39.6616L36.3528 38.3401L21.4779 42.4639L6.64389 38.3457V38.3457Z" fill="#1572B6"/>
<path d="M21.5004 39.3123L33.5201 35.9798L36.3479 4.3009H21.5004V39.3123Z" fill="#33A9DC"/>
<path d="M21.5004 17.7334H27.5176L27.9332 13.077H21.5004V8.52966H32.903L32.7938 9.74975L31.676 22.2807H21.5004V17.7334Z" fill="white"/>
<path d="M21.5273 29.5431L21.5072 29.549L16.4431 28.1817L16.1192 24.5549H11.5552L12.192 31.695L21.5066 34.2801L21.5273 34.2742V29.5431V29.5431Z" fill="#EBEBEB"/>
<path d="M27.131 22.0885L26.5833 28.1781L21.5116 29.5471V34.2782L30.8337 31.6947L30.9021 30.9263L31.6931 22.0885H27.131Z" fill="white"/>
<path d="M21.5158 8.52966V13.077H10.532L10.441 12.0551L10.2338 9.74975L10.125 8.52966H21.5158V8.52966ZM21.5003 17.7341V22.2814H16.5L16.4089 21.2595L16.2014 18.9542L16.0929 17.7341H21.5003V17.7341Z" fill="#EBEBEB"/>
</svg>
