<svg width="43" height="43" viewBox="0 0 43 43" fill="none" xmlns="http://www.w3.org/2000/svg">
<path d="M41.946 32.5064C40.4468 32.8878 39.5197 32.5228 38.6879 31.2735C36.8204 28.4756 34.759 25.8059 32.7699 23.087C32.5135 22.7352 32.2471 22.3899 31.9151 21.9527C29.561 25.1287 27.2103 28.1534 25.0042 31.2998C24.2152 32.4242 23.3866 32.9141 21.9137 32.5163L30.7644 20.6376L22.5252 9.9096C23.9423 9.63343 24.922 9.77481 25.79 11.0439C27.7068 13.8451 29.8208 16.5114 31.9282 19.3323C34.0488 16.5213 36.1366 13.8516 38.1092 11.0768C38.9016 9.95234 39.7531 9.52493 41.1767 9.93919C40.0983 11.3694 39.0429 12.7765 37.981 14.1738C36.5475 16.0577 35.1404 17.9646 33.6543 19.8091C33.125 20.4666 33.2105 20.894 33.6839 21.5154C36.4325 25.1287 39.1481 28.7781 41.946 32.5064ZM0.73728 20.4403C0.973999 19.2534 1.13181 18.0435 1.46059 16.8797C3.43324 9.83398 11.5211 6.90459 17.0774 11.2707C20.3323 13.8319 21.1411 17.4419 20.98 21.5121H2.63432C2.35814 28.8142 7.61527 33.2231 14.3157 30.9743C16.6665 30.1852 18.0506 28.3441 18.7443 26.0427C19.0961 24.8886 19.6781 24.7078 20.763 25.0366C20.2074 27.9167 18.9482 30.3233 16.318 31.8291C12.3727 34.0845 6.74073 33.3546 3.77846 30.2214C2.02937 28.3803 1.28634 26.0887 0.95756 23.613C0.908244 23.2185 0.806323 22.8305 0.727417 22.4393C0.733993 21.7729 0.73728 21.1066 0.73728 20.4403V20.4403ZM2.66719 19.9504H19.2474C19.1389 14.6703 15.8511 10.9189 11.3567 10.8861C6.4251 10.8466 2.8809 14.5092 2.66719 19.9504V19.9504Z" fill="black"/>
</svg>
