<svg width="43" height="43" viewBox="0 0 43 43" fill="none" xmlns="http://www.w3.org/2000/svg">
<path d="M15.2594 42.5538C19.1718 42.5538 22.328 39.3975 22.328 35.4851V28.4164H15.2594C11.3469 28.4164 8.19067 31.5726 8.19067 35.4851C8.19067 39.3975 11.3469 42.5538 15.2594 42.5538Z" fill="#0ACF83"/>
<path d="M8.19067 21.3476C8.19067 17.4352 11.3469 14.2789 15.2594 14.2789H22.328V28.4163H15.2594C11.3469 28.4163 8.19067 25.26 8.19067 21.3476Z" fill="#A259FF"/>
<path d="M8.19067 7.21029C8.19067 3.29785 11.3469 0.141602 15.2594 0.141602H22.328V14.279H15.2594C11.3469 14.279 8.19067 11.1227 8.19067 7.21029Z" fill="#F24E1E"/>
<path d="M22.328 0.141602H29.3967C33.3091 0.141602 36.4654 3.29785 36.4654 7.21029C36.4654 11.1227 33.3091 14.279 29.3967 14.279H22.328V0.141602Z" fill="#FF7262"/>
<path d="M36.4654 21.3476C36.4654 25.26 33.3091 28.4163 29.3967 28.4163C25.4843 28.4163 22.328 25.26 22.328 21.3476C22.328 17.4352 25.4843 14.2789 29.3967 14.2789C33.3091 14.2789 36.4654 17.4352 36.4654 21.3476Z" fill="#1ABCFE"/>
</svg>
