<svg width="43" height="43" viewBox="0 0 43 43" fill="none" xmlns="http://www.w3.org/2000/svg">
<path d="M21.5 0.824951C9.89425 0.824951 0.458374 10.2608 0.458374 21.8666C0.458374 33.4724 9.89425 42.9083 21.5 42.9083C33.1058 42.9083 42.5417 33.4724 42.5417 21.8666C42.5417 10.2608 33.1058 0.824951 21.5 0.824951ZM32.251 38.4369L16.3711 14.5678H14.1355V31.0395H16.3711V19.0063L30.903 39.226C28.1084 40.7384 24.9193 41.5932 21.5 41.5932C10.5847 41.6261 1.7406 32.782 1.7406 21.8666C1.7406 10.9513 10.5847 2.10718 21.5 2.10718C32.4154 2.10718 41.2595 10.9513 41.2595 21.8666C41.2595 28.8038 37.6758 34.919 32.251 38.4369V38.4369Z" fill="black"/>
<path d="M26.3002 24.9243L28.766 28.6395V14.5679H26.3002V24.9243Z" fill="black"/>
</svg>
