<svg width="43" height="43" viewBox="0 0 43 43" fill="none" xmlns="http://www.w3.org/2000/svg">
<path fill-rule="evenodd" clip-rule="evenodd" d="M16.8197 13.8239C15.6091 13.5198 14.3969 13.6174 13.1177 13.8167C13.1177 16.054 13.1131 18.2312 13.1298 20.4086C13.1305 20.5201 13.2978 20.7141 13.4063 20.7289C14.8013 20.9173 16.1888 20.9324 17.4934 20.2965C18.843 19.639 19.5304 18.264 19.3523 16.6497C19.1905 15.1798 18.3202 14.201 16.8197 13.8239V13.8239ZM42.0546 21.1711V1.22159C42.0546 0.532476 42.0621 0.470337 41.3931 0.470337H1.44382C0.793172 0.470337 0.628784 0.532804 0.628784 1.18904V41.1383C0.628784 41.8018 0.711636 41.8028 1.35505 41.8028C14.6886 41.8031 28.0619 41.7998 41.3954 41.8149C41.9125 41.8156 42.0513 41.6778 42.05 41.1709C42.0322 34.5043 42.0546 27.837 42.0546 21.1711V21.1711ZM18.8272 23.0911C17.0002 23.7428 15.0949 23.7793 13.1223 23.6264V31.0465H9.50574V30.5856C9.50574 24.3734 9.47713 18.1618 9.45971 11.9499C9.45774 11.434 9.5396 11.1848 10.1209 11.1256C12.8602 10.8455 15.5841 10.5306 18.3081 11.1694C21.2361 11.8555 22.9244 13.7914 23.0526 16.466C23.2114 19.778 21.7559 22.0466 18.8272 23.0911V23.0911ZM33.3953 27.2843C33.2559 29.1817 32.186 30.4274 30.4313 31.0298C28.0832 31.8359 25.7479 31.6488 23.4531 30.7368C23.0773 30.5872 23.0046 30.3978 23.1286 30.0148C23.3544 29.3158 23.5198 28.5971 23.6941 27.9481C24.6643 28.2329 25.5868 28.5883 26.5426 28.7563C27.2176 28.875 27.9471 28.8053 28.6333 28.6977C29.2484 28.6011 29.6909 28.1835 29.7919 27.5234C29.8945 26.8523 29.6923 26.2711 29.0998 25.914C28.629 25.6306 28.1102 25.4277 27.6127 25.19C26.8128 24.8077 25.9603 24.5078 25.2225 24.0295C22.3191 22.1466 23.2644 18.6431 25.2018 17.3237C26.2385 16.6182 27.3856 16.3052 28.6135 16.2621C30.0579 16.2115 31.4486 16.4607 32.8146 17.1245L32.093 19.6853C31.5209 19.4828 30.9883 19.2198 30.4261 19.1152C29.759 18.991 29.0594 18.9216 28.386 18.9765C27.4832 19.0505 26.9545 19.6735 26.9545 20.4461C26.9545 20.9038 27.1281 21.2911 27.5098 21.513C28.0576 21.8316 28.6389 22.0943 29.2149 22.3609C29.8382 22.6493 30.4964 22.8708 31.0965 23.2C32.6976 24.0778 33.531 25.4356 33.3953 27.2843Z" fill="#80B5E2"/>
</svg>
