<svg width="43" height="43" viewBox="0 0 43 43" fill="none" xmlns="http://www.w3.org/2000/svg">
<path d="M21.5001 25.248C23.5701 25.248 25.2482 23.57 25.2482 21.5C25.2482 19.43 23.5701 17.752 21.5001 17.752C19.4301 17.752 17.7521 19.43 17.7521 21.5C17.7521 23.57 19.4301 25.248 21.5001 25.248Z" fill="#61DAFB"/>
<path d="M35.736 15.3191C35.0127 15.056 34.2565 14.793 33.4675 14.5629C33.6648 13.7738 33.8291 12.9848 33.9607 12.2286C34.6511 7.88872 33.8949 4.8311 31.7907 3.6475C31.1661 3.28585 30.4756 3.12146 29.6866 3.12146C27.3851 3.12146 24.459 4.8311 21.5001 7.69145C18.5411 4.8311 15.615 3.12146 13.3135 3.12146C12.5245 3.12146 11.8341 3.28585 11.2094 3.6475C9.10521 4.86398 8.34903 7.9216 9.03946 12.2286C9.17097 12.9848 9.33536 13.7738 9.53262 14.5629C8.74356 14.793 7.98738 15.0232 7.26407 15.3191C3.15438 16.8972 0.918701 19.0671 0.918701 21.5001C0.918701 23.933 3.18725 26.1029 7.26407 27.6811C7.98738 27.9441 8.74356 28.2071 9.53262 28.4372C9.33536 29.2263 9.17097 30.0154 9.03946 30.7716C8.34903 35.1114 9.10521 38.169 11.2094 39.3526C11.8341 39.7143 12.5245 39.8787 13.3135 39.8787C15.6478 39.8787 18.574 38.169 21.5001 35.3087C24.459 38.169 27.3851 39.8787 29.6866 39.8787C30.4756 39.8787 31.1661 39.7143 31.7907 39.3526C33.8949 38.1362 34.6511 35.0785 33.9607 30.7716C33.8291 30.0154 33.6648 29.2263 33.4675 28.4372C34.2565 28.2071 35.0127 27.977 35.736 27.6811C39.8457 26.1029 42.0814 23.933 42.0814 21.5001C42.0814 19.0671 39.8457 16.8972 35.736 15.3191V15.3191ZM30.8702 5.29138C32.2181 6.08045 32.6784 8.51339 32.1195 11.9655C32.0209 12.656 31.8565 13.3793 31.6592 14.1355C29.9496 13.7409 28.1413 13.4779 26.2344 13.3135C25.1166 11.7354 23.9659 10.3217 22.8152 9.03944C25.2481 6.63937 27.7139 4.99549 29.7194 4.99549C30.1469 4.99549 30.5414 5.09412 30.8702 5.29138V5.29138ZM27.1879 24.7878C26.5961 25.8399 25.9056 26.892 25.1823 27.9441C23.9659 28.0427 22.7494 28.0756 21.5001 28.0756C20.2178 28.0756 19.0014 28.0427 17.8178 27.9441C17.0945 26.892 16.4369 25.8399 15.8451 24.7878C15.2204 23.7029 14.6286 22.585 14.1026 21.5001C14.6286 20.4151 15.2204 19.2973 15.8451 18.2123C16.4369 17.1602 17.1273 16.1081 17.8506 15.056C19.0671 14.9574 20.2836 14.9245 21.5329 14.9245C22.8152 14.9245 24.0316 14.9574 25.2152 15.056C25.9385 16.1081 26.5961 17.1602 27.1879 18.2123C27.8125 19.2973 28.4043 20.4151 28.9304 21.5001C28.3715 22.585 27.8125 23.67 27.1879 24.7878ZM29.9167 23.7029C30.4099 24.8536 30.8044 25.9714 31.1661 27.0893C30.0482 27.3523 28.8646 27.5496 27.6153 27.7139C28.0098 27.0893 28.4372 26.4317 28.7989 25.7413C29.1934 25.0509 29.5551 24.3604 29.9167 23.7029ZM21.5001 32.6127C20.711 31.7579 19.9548 30.8373 19.2315 29.8839C19.9877 29.9167 20.7439 29.9496 21.5001 29.9496C22.2562 29.9496 23.0124 29.9167 23.7686 29.8839C23.0453 30.8373 22.2891 31.7579 21.5001 32.6127ZM15.3848 27.6811C14.1355 27.5167 12.9519 27.3194 11.8341 27.0564C12.1957 25.9714 12.5902 24.8207 13.0834 23.67C13.4451 24.3275 13.8067 25.018 14.2012 25.6755C14.5958 26.3988 14.9903 27.0235 15.3848 27.6811V27.6811ZM13.0834 19.2973C12.5902 18.1465 12.1957 17.0287 11.8341 15.9109C12.9519 15.6478 14.1355 15.4506 15.3848 15.2862C14.9903 15.9109 14.5629 16.5684 14.2012 17.2588C13.8067 17.9493 13.4451 18.6397 13.0834 19.2973V19.2973ZM21.5001 10.3874C22.2891 11.2422 23.0453 12.1628 23.7686 13.1163C23.0124 13.0834 22.2562 13.0505 21.5001 13.0505C20.7439 13.0505 19.9877 13.0834 19.2315 13.1163C19.9548 12.1628 20.711 11.2422 21.5001 10.3874ZM28.7989 17.2917L27.6153 15.3191C28.8646 15.4835 30.0482 15.6807 31.1661 15.9437C30.8044 17.0287 30.4099 18.1794 29.9167 19.3301C29.5551 18.6397 29.1934 17.9493 28.7989 17.2917ZM10.8806 11.9655C10.3217 8.51339 10.782 6.08045 12.1299 5.29138C12.4587 5.09412 12.8533 4.99549 13.2807 4.99549C15.2533 4.99549 17.7191 6.60649 20.185 9.03944C19.0342 10.2888 17.8835 11.7354 16.7657 13.3135C14.8588 13.4779 13.0505 13.7738 11.3409 14.1355C11.1436 13.3793 11.0121 12.656 10.8806 11.9655V11.9655ZM2.75984 21.5001C2.75984 19.9548 4.63387 18.3109 7.92162 17.0945C8.57917 16.8314 9.30248 16.6013 10.0258 16.404C10.5518 18.0479 11.2094 19.7904 11.9984 21.5329C11.2094 23.2755 10.5189 24.9851 10.0258 26.629C5.48868 25.3139 2.75984 23.3412 2.75984 21.5001ZM12.1299 37.7087C10.782 36.9197 10.3217 34.4867 10.8806 31.0346C10.9792 30.3442 11.1436 29.6208 11.3409 28.8647C13.0505 29.2592 14.8588 29.5222 16.7657 29.6866C17.8835 31.2647 19.0342 32.6785 20.185 33.9607C17.752 36.3608 15.2862 38.0046 13.2807 38.0046C12.8533 38.0046 12.4587 37.906 12.1299 37.7087ZM32.1195 31.0346C32.6784 34.4867 32.2181 36.9197 30.8702 37.7087C30.5414 37.906 30.1469 38.0046 29.7194 38.0046C27.7468 38.0046 25.281 36.3936 22.8152 33.9607C23.9659 32.7113 25.1166 31.2647 26.2344 29.6866C28.1413 29.5222 29.9496 29.2263 31.6592 28.8647C31.8565 29.6208 31.988 30.3442 32.1195 31.0346V31.0346ZM35.0785 25.9057C34.4209 26.1687 33.6976 26.3988 32.9743 26.5961C32.4483 24.9522 31.7907 23.2097 31.0017 21.4672C31.7907 19.7247 32.4812 18.015 32.9743 16.3712C37.5114 17.6863 40.2403 19.6589 40.2403 21.5001C40.2403 23.0453 38.3334 24.6892 35.0785 25.9057Z" fill="#61DAFB"/>
</svg>
