<svg version="1.1" xmlns="http://www.w3.org/2000/svg" xmlns:xlink="http://www.w3.org/1999/xlink" width="37.84181" height="28.01606" viewBox="0,0,37.84181,28.01606"><g transform="translate(-221.0791,-165.99197)"><g data-paper-data="{&quot;isPaintingLayer&quot;:true}" fill="#000000" fill-rule="nonzero" stroke="none" stroke-width="1" stroke-linecap="butt" stroke-linejoin="miter" stroke-miterlimit="10" stroke-dasharray="" stroke-dashoffset="0" style="mix-blend-mode: normal"><path d="M235.88533,193.57448c-3.7394,-0.70045 -8.2215,-3.53957 -9.28992,-5.88445c-0.56978,-1.25052 -1.37284,-1.74221 -2.94377,-1.80238l-2.16021,-0.08272l2.09768,-0.5338l2.09763,-0.53375l-2.44725,-0.18751c-2.19687,-0.16829 -2.25052,-0.21731 -0.52443,-0.47875c2.39925,-0.36348 2.49182,-1.42741 0.17481,-2.00897c-2.56141,-0.64289 -2.33652,-2.6773 0.23899,-2.16219c1.74603,0.34919 2.1294,0.0989 3.16054,-2.06339c0.90979,-1.90785 1.07006,-3.47023 0.71329,-6.95268c-0.52805,-5.15377 -0.16254,-5.42144 3.76181,-2.75481c2.22936,1.51491 3.0516,1.68233 6.43071,1.30934c2.75703,-0.30428 4.41271,-0.92814 5.74054,-2.16297c2.19122,-2.03775 3.08907,-1.70426 3.76152,1.39713c0.27009,1.24545 1.4742,3.41378 2.6759,4.81849c1.2017,1.40476 2.83121,3.60728 3.62109,4.8946c1.41988,2.31392 2.29813,2.62235 4.68202,1.64414c1.76394,-0.72377 1.6055,1.49164 -0.17481,2.44445c-1.72488,0.92312 -1.81914,2.08078 -0.17481,2.14679c1.04635,0.04201 1.021,0.13623 -0.17481,0.65008c-1.39844,0.60097 -1.39844,0.60097 0,0.70528c1.02781,0.07668 1.12048,0.20886 0.34962,0.49864c-0.57687,0.21682 -2.33391,1.56629 -3.90455,2.99877c-4.17246,3.80546 -10.93251,5.37054 -17.71158,4.10066zM248.20416,191.12057c6.00054,-2.13476 8.71609,-7.92345 4.72027,-10.06194c-0.90689,-0.48536 -1.84546,-1.77747 -2.0857,-2.87129c-0.24024,-1.09392 -1.35802,-2.85805 -2.48395,-3.92034c-1.12589,-1.06234 -2.38244,-2.9472 -2.79238,-4.18859l-0.74526,-2.25708l-1.87371,1.3134c-1.03056,0.72232 -3.71414,1.50844 -5.9635,1.7469c-3.44666,0.36536 -4.47346,0.1964 -6.53009,-1.07465l-2.4403,-1.5082l0.46107,3.76639c0.3714,3.03402 0.16786,4.42439 -1.04679,7.14989c-1.66007,3.72496 -1.49671,5.53893 0.75676,8.40375c3.78692,4.81424 12.19931,6.2854 20.02357,3.50176zM239.67124,190.79186c-2.88717,-1.65167 -4.26079,-5.44873 -2.38945,-6.60528c0.41641,-0.25734 3.41866,0.09064 6.67167,0.77332c6.40975,1.34512 7.06118,2.15031 3.74249,4.62552c-2.22033,1.65602 -6.19442,2.25346 -8.02472,1.20643zM245.71437,189.06529c1.17036,-0.60517 1.97333,-1.25492 1.78447,-1.44383c-0.54326,-0.54326 -9.04388,-2.41596 -9.39094,-2.06885c-0.68702,0.68698 0.63758,3.05923 2.10313,3.76654c2.17301,1.04877 3.06377,1.00772 5.50334,-0.25386z"/><path d=""/></g></g></svg>