<svg width="43" height="43" viewBox="0 0 43 43" fill="none" xmlns="http://www.w3.org/2000/svg">
<path d="M28.4044 32.1853C24.7517 34.2007 19.7313 34.4078 14.678 32.3398C10.738 30.7411 7.36924 27.9955 5.00867 24.459C6.1057 25.2988 7.30422 25.9969 8.57589 26.5369C13.7936 28.8712 19.0079 28.7101 22.6804 26.5369C17.4528 22.7034 13.0144 17.7191 9.70688 13.6489C9.05418 12.961 8.47157 12.2099 7.96765 11.4066C11.9656 14.8949 18.3241 19.2972 20.5861 20.5433C17.3564 17.2341 14.3885 13.6792 11.7091 9.91068C16.1631 14.239 21.0641 18.082 26.3298 21.3751C26.5632 21.5 26.7441 21.6052 26.8887 21.7039C27.0431 21.3271 27.1759 20.9418 27.2865 20.5499C28.5063 16.3119 27.1123 11.4954 24.0678 7.50732C31.1168 11.5743 35.3087 19.215 33.553 25.613C33.507 25.7873 33.4577 25.9418 33.4051 26.1226L33.4675 26.195C36.9493 30.3474 35.9925 34.7431 35.5552 33.9212C33.6648 30.377 30.1699 31.4718 28.4044 32.1853Z" fill="#F05138"/>
</svg>
