<svg width="43" height="43" viewBox="0 0 43 43" fill="none" xmlns="http://www.w3.org/2000/svg">
<path d="M21.5014 9.24231C15.8902 9.24231 12.3844 12.0468 10.9805 17.658C13.0841 14.8532 15.5397 13.8015 18.3445 14.5027C19.9459 14.9019 21.0904 16.0631 22.3578 17.3499C24.4206 19.4433 26.8082 21.8667 32.0222 21.8667C37.6331 21.8667 41.1392 19.0619 42.543 13.4493C40.4392 16.2558 37.9839 17.3075 35.1788 16.6062C33.5777 16.2068 32.4345 15.0459 31.1654 13.759C29.104 11.6657 26.7171 9.24231 21.5014 9.24231V9.24231ZM10.9805 21.8667C5.36966 21.8667 1.86359 24.6715 0.459717 30.284C2.56323 27.4776 5.01853 26.4258 7.82364 27.1271C9.42511 27.5266 10.5696 28.6875 11.837 29.9743C13.8998 32.0676 16.2873 34.491 21.5014 34.491C27.1123 34.491 30.6183 31.6866 32.0222 26.0753C29.9184 28.8801 27.4631 29.9319 24.658 29.2306C23.0568 28.8315 21.9137 27.6702 20.6446 26.3834C18.5832 24.2901 16.1963 21.8667 10.9805 21.8667Z" fill="#38B2AC"/>
</svg>
