<svg width="19" height="18" viewBox="0 0 19 18" fill="none" xmlns="http://www.w3.org/2000/svg">
<ellipse cx="9" cy="10" rx="9" ry="8" fill="white"/>
<path fill-rule="evenodd" clip-rule="evenodd" d="M9.00203 0C4.02841 0 0 4.12937 0 9.22764C0 13.3109 2.57683 16.7597 6.15514 17.9824C6.60524 18.0631 6.77403 17.7863 6.77403 17.5441C6.77403 17.3249 6.76278 16.5982 6.76278 15.8254C4.50102 16.2522 3.91588 15.2602 3.73584 14.7412C3.63457 14.4759 3.19572 13.6569 2.81314 13.4378C2.49806 13.2647 2.04796 12.838 2.80188 12.8264C3.51079 12.8149 4.01716 13.4954 4.18595 13.7723C4.99613 15.1679 6.29017 14.7758 6.80779 14.5335C6.88655 13.9337 7.12286 13.53 7.38167 13.2993C5.37871 13.0687 3.28574 12.2728 3.28574 8.74319C3.28574 7.73969 3.63457 6.9092 4.20845 6.26326C4.11843 6.03257 3.80336 5.08674 4.29847 3.81794C4.29847 3.81794 5.05239 3.57571 6.77403 4.76377C7.49419 4.55615 8.25937 4.45234 9.02454 4.45234C9.78971 4.45234 10.5549 4.55615 11.275 4.76377C12.9967 3.56418 13.7506 3.81794 13.7506 3.81794C14.2457 5.08674 13.9306 6.03257 13.8406 6.26326C14.4145 6.9092 14.7633 7.72815 14.7633 8.74319C14.7633 12.2843 12.6591 13.0687 10.6562 13.2993C10.9825 13.5877 11.2638 14.1414 11.2638 15.0065C11.2638 16.2407 11.2525 17.2326 11.2525 17.5441C11.2525 17.7863 11.4213 18.0746 11.8714 17.9824C15.4272 16.7597 18.0041 13.2993 18.0041 9.22764C18.0041 4.12937 13.9757 0 9.00203 0Z" fill="#57AEFF"/>
</svg>
