<svg width="18" height="18" viewBox="0 0 18 18" fill="none" xmlns="http://www.w3.org/2000/svg">
<path d="M18 9C18 13.9706 13.9706 18 9 18C4.02944 18 0 13.9706 0 9C0 4.02944 4.02944 0 9 0C13.9706 0 18 4.02944 18 9Z" fill="#57AEFF"/>
<path d="M4.68182 12.9977H6.27273V9.1362L4 7.43261V12.3162C4 12.6933 4.30568 12.9977 4.68182 12.9977Z" fill="white"/>
<path d="M11.7273 12.9977H13.3182C13.6955 12.9977 14 12.6921 14 12.3162V7.43261L11.7273 9.1362" fill="white"/>
<path d="M11.7273 6.18337V9.1362L14 7.43261V6.52408C14 5.68138 13.0375 5.20097 12.3636 5.70636" fill="white"/>
<path d="M6.27273 9.1362L6.27273 6.18332L9 8.22762L11.7273 6.18337V9.1362L9 11.1805" fill="white"/>
<path d="M4 6.52408V7.43261L6.27273 9.1362L6.27273 6.18332L5.63636 5.70636C4.96136 5.20097 4 5.68138 4 6.52408Z" fill="white"/>
</svg>
