<svg width="18" height="18" viewBox="0 0 18 18" fill="none" xmlns="http://www.w3.org/2000/svg">
<circle cx="9" cy="9" r="9" fill="#57AEFF"/>
<path d="M7.6952 13.8607C6.5094 13.6357 5.08808 12.7237 4.74928 11.9704C4.56859 11.5687 4.31393 11.4107 3.81578 11.3914L3.13075 11.3648L3.79595 11.1933L4.46113 11.0219L3.68508 10.9616C2.98843 10.9076 2.97142 10.8918 3.51878 10.8078C4.2796 10.6911 4.30896 10.3493 3.57421 10.1625C2.76197 9.95593 2.83328 9.30239 3.65 9.46787C4.20368 9.58004 4.32525 9.49963 4.65224 8.80501C4.94074 8.19212 4.99156 7.69022 4.87843 6.57151C4.71098 4.91589 4.82688 4.8299 6.07133 5.68654C6.77828 6.17319 7.03902 6.22697 8.11057 6.10715C8.98485 6.00941 9.50989 5.809 9.93095 5.41231C10.6258 4.7577 10.9105 4.86483 11.1238 5.86113C11.2094 6.26123 11.5913 6.95779 11.9723 7.40905C12.3534 7.86032 12.8701 8.56786 13.1206 8.98141C13.5709 9.72474 13.8494 9.82383 14.6053 9.50958C15.1647 9.27707 15.1144 9.98876 14.5499 10.2948C14.0029 10.5914 13.973 10.9633 14.4945 10.9845C14.8263 10.998 14.8182 11.0283 14.439 11.1933C13.9956 11.3864 13.9956 11.3864 14.439 11.4199C14.7649 11.4445 14.7943 11.487 14.5499 11.5801C14.367 11.6497 13.8098 12.0832 13.3117 12.5434C11.9886 13.7659 9.84491 14.2687 7.6952 13.8607ZM8.89575 12.9668C7.9802 12.4362 7.54461 11.2165 8.13803 10.8449C8.27008 10.7622 9.22212 10.874 10.2537 11.0933C12.2863 11.5255 12.4929 11.7841 11.4405 12.5793C10.7364 13.1113 9.47615 13.3032 8.89575 12.9668ZM10.8121 12.4122C11.1832 12.2178 11.4378 12.009 11.378 11.9484C11.2057 11.7738 8.51005 11.1722 8.4 11.2837C8.18214 11.5044 8.60218 12.2665 9.06692 12.4937C9.756 12.8306 10.0385 12.8175 10.8121 12.4122Z" fill="white"/>
</svg>
