<svg width="43" height="43" viewBox="0 0 43 43" fill="none" xmlns="http://www.w3.org/2000/svg">
<path d="M5.38509 9.93603C5.30717 7.69542 7.05264 5.62939 9.41226 5.62939H33.5904C35.95 5.62939 37.6955 7.69542 37.6176 9.93603C37.5426 12.0882 37.6399 14.8762 38.3415 17.1494C39.0455 19.4298 40.2323 20.8708 42.1764 21.0562V23.1561C40.2323 23.3415 39.0455 24.7826 38.3415 27.063C37.6399 29.3361 37.5426 32.1241 37.6176 34.2763C37.6955 36.5169 35.95 38.5826 33.5904 38.5826H9.41226C7.05264 38.5826 5.30717 36.5166 5.38509 34.2763C5.46005 32.1241 5.36273 29.3361 4.66079 27.063C3.95722 24.7829 2.76705 23.3415 0.822998 23.1561V21.0562C2.76705 20.8711 3.95722 19.4298 4.66079 17.1494C5.36273 14.8762 5.45972 12.0882 5.38509 9.93603V9.93603Z" fill="url(#paint0_linear_155_133)"/>
<g filter="url(#filter0_d_155_133)">
<path d="M22.5225 30.9856C26.3425 30.9856 28.6445 29.1152 28.6445 26.0301C28.6445 23.6981 27.002 22.0099 24.5631 21.7426V21.6454C26.3549 21.3539 27.761 19.69 27.761 17.8317C27.761 15.1839 25.6706 13.4591 22.4852 13.4591H15.3179V30.9856H22.5225ZM18.1051 15.6818H21.8132C23.829 15.6818 24.9738 16.5806 24.9738 18.2081C24.9738 19.945 23.6424 20.9167 21.2284 20.9167H18.1051V15.6818ZM18.1051 28.7629V22.9936H21.7883C24.4262 22.9936 25.795 23.9652 25.795 25.86C25.795 27.7547 24.4636 28.7629 21.9501 28.7629H18.1051Z" fill="url(#paint1_linear_155_133)"/>
<path d="M22.5225 30.9856C26.3425 30.9856 28.6445 29.1152 28.6445 26.0301C28.6445 23.6981 27.002 22.0099 24.5631 21.7426V21.6454C26.3549 21.3539 27.761 19.69 27.761 17.8317C27.761 15.1839 25.6706 13.4591 22.4852 13.4591H15.3179V30.9856H22.5225ZM18.1051 15.6818H21.8132C23.829 15.6818 24.9738 16.5806 24.9738 18.2081C24.9738 19.945 23.6424 20.9167 21.2284 20.9167H18.1051V15.6818ZM18.1051 28.7629V22.9936H21.7883C24.4262 22.9936 25.795 23.9652 25.795 25.86C25.795 27.7547 24.4636 28.7629 21.9501 28.7629H18.1051Z" stroke="white" stroke-width="0.24566"/>
</g>
<defs>
<filter id="filter0_d_155_133" x="11.2645" y="10.3884" width="21.4334" height="25.6332" filterUnits="userSpaceOnUse" color-interpolation-filters="sRGB">
<feFlood flood-opacity="0" result="BackgroundImageFix"/>
<feColorMatrix in="SourceAlpha" type="matrix" values="0 0 0 0 0 0 0 0 0 0 0 0 0 0 0 0 0 0 127 0" result="hardAlpha"/>
<feOffset dy="0.98264"/>
<feGaussianBlur stdDeviation="1.96528"/>
<feColorMatrix type="matrix" values="0 0 0 0 0 0 0 0 0 0 0 0 0 0 0 0 0 0 0.15 0"/>
<feBlend mode="normal" in2="BackgroundImageFix" result="effect1_dropShadow_155_133"/>
<feBlend mode="normal" in="SourceGraphic" in2="effect1_dropShadow_155_133" result="shape"/>
</filter>
<linearGradient id="paint0_linear_155_133" x1="6.968" y1="6.50152" x2="43.1033" y2="35.1861" gradientUnits="userSpaceOnUse">
<stop stop-color="#9013FE"/>
<stop offset="1" stop-color="#6610F2"/>
</linearGradient>
<linearGradient id="paint1_linear_155_133" x1="16.5788" y1="14.6125" x2="24.6555" y2="28.2726" gradientUnits="userSpaceOnUse">
<stop stop-color="white"/>
<stop offset="1" stop-color="#F1E5FC"/>
</linearGradient>
</defs>
</svg>
