<svg width="43" height="43" viewBox="0 0 43 43" fill="none" xmlns="http://www.w3.org/2000/svg">
<path fill-rule="evenodd" clip-rule="evenodd" d="M21.3417 1.81934C10.378 1.81934 1.48755 10.7078 1.48755 21.6734C1.48755 30.4458 7.17635 37.8877 15.065 40.5133C16.0569 40.6974 16.4212 40.0826 16.4212 39.5582C16.4212 39.0847 16.4028 37.5208 16.3942 35.8618C10.8708 37.0628 9.7053 33.5192 9.7053 33.5192C8.80215 31.2244 7.50086 30.6142 7.50086 30.6142C5.69917 29.3819 7.63664 29.4076 7.63664 29.4076C9.63001 29.5473 10.6801 31.4535 10.6801 31.4535C12.4509 34.4881 15.3247 33.611 16.4577 33.104C16.6359 31.8208 17.1504 30.9446 17.7182 30.4488C13.3083 29.9474 8.67228 28.2447 8.67228 20.6371C8.67228 18.4695 9.44819 16.6984 10.7183 15.3077C10.5118 14.8079 9.8322 12.7886 10.9103 10.0539C10.9103 10.0539 12.5772 9.52025 16.3712 12.089C17.9553 11.6487 19.654 11.4275 21.3417 11.4199C23.0283 11.4275 24.728 11.6481 26.315 12.0883C30.1045 9.51959 31.7694 10.0532 31.7694 10.0532C32.8501 12.7876 32.1705 14.8073 31.9644 15.307C33.2374 16.6978 34.0077 18.4689 34.0077 20.6365C34.0077 28.2621 29.3631 29.9408 24.9421 30.4327C25.6545 31.0488 26.2891 32.2574 26.2891 34.1094C26.2891 36.7659 26.2661 38.9039 26.2661 39.5579C26.2661 40.0862 26.6238 40.7053 27.6298 40.5103C35.5139 37.8821 41.1961 30.4425 41.1961 21.6734C41.1958 10.7084 32.3063 1.81966 21.3417 1.81966V1.81934Z" fill="#181616"/>
<path d="M9.00729 30.3252C8.96357 30.4239 8.80839 30.4534 8.66701 30.386C8.52235 30.3216 8.4418 30.1871 8.48849 30.0882C8.53123 29.9863 8.68674 29.9583 8.83041 30.0264C8.97507 30.0911 9.05727 30.2269 9.00697 30.3256L9.00729 30.3252ZM9.81148 31.2225C9.71712 31.3102 9.53202 31.2695 9.40643 31.1304C9.27623 30.9923 9.2519 30.8072 9.34823 30.7181C9.44621 30.6307 9.62572 30.6721 9.75592 30.8102C9.88545 30.9502 9.9111 31.1337 9.81181 31.2228L9.81148 31.2225ZM10.5946 32.3656C10.473 32.4504 10.2737 32.3712 10.1508 32.1946C10.0291 32.0178 10.0291 31.8057 10.1541 31.7212C10.2767 31.6364 10.473 31.713 10.5979 31.8879C10.7189 32.0671 10.7189 32.2791 10.5946 32.3653V32.3656ZM11.6668 33.4706C11.5583 33.5906 11.3261 33.5584 11.1565 33.395C10.9832 33.2349 10.9349 33.007 11.0437 32.8874C11.1542 32.767 11.3873 32.8006 11.5579 32.963C11.7312 33.1228 11.7835 33.3509 11.6674 33.4703L11.6668 33.4706ZM13.1463 34.1121C13.0979 34.2676 12.875 34.3383 12.6498 34.2718C12.4252 34.2038 12.2783 34.022 12.3243 33.8648C12.3703 33.708 12.5949 33.6347 12.8214 33.7054C13.046 33.7731 13.1929 33.9539 13.1463 34.1121ZM14.7714 34.2307C14.777 34.3945 14.5863 34.5299 14.3506 34.5332C14.1129 34.5388 13.9205 34.406 13.9182 34.2449C13.9182 34.0795 14.105 33.9457 14.3423 33.9411C14.5781 33.9368 14.7717 34.0683 14.7717 34.2304L14.7714 34.2307ZM16.2831 33.9736C16.3114 34.1331 16.1473 34.2972 15.9129 34.3409C15.6828 34.3836 15.4691 34.2843 15.4395 34.1262C15.4112 33.9625 15.5782 33.7984 15.8083 33.756C16.0431 33.7156 16.2535 33.8119 16.2831 33.974V33.9736Z" fill="#181616"/>
</svg>
