<svg width="43" height="43" viewBox="0 0 43 43" fill="none" xmlns="http://www.w3.org/2000/svg">
<path d="M6.71726 37.948L3.42786 1.05444H39.5722L36.2792 37.9425L21.478 42.0456L6.71726 37.948Z" fill="#E44D26"/>
<path d="M21.5 38.9093L33.4602 35.5933L36.2742 4.07092H21.5V38.9093Z" fill="#F16529"/>
<path d="M21.5001 17.7542H15.5124L15.0988 13.1204H21.5001V8.59583H10.1537L10.2622 9.80967L11.3741 22.2792H21.5001V17.7542ZM21.5001 29.5057L21.48 29.5112L16.4409 28.1501L16.119 24.5418H11.5763L12.2102 31.6463L21.4794 34.2193L21.5001 34.2137V29.5057Z" fill="#EBEBEB"/>
<path d="M21.4843 17.7542V22.2792H27.056L26.531 28.1475L21.4843 29.5096V34.2173L30.7607 31.6463L30.8287 30.8819L31.892 18.9694L32.0021 17.7542H30.783H21.4843ZM21.4843 8.59583V13.1204H32.4141L32.5048 12.1039L32.7113 9.80967L32.8195 8.59583H21.4843Z" fill="white"/>
</svg>
