<svg width="43" height="43" viewBox="0 0 43 43" fill="none" xmlns="http://www.w3.org/2000/svg">
<path d="M0.921265 5.92127C0.921265 3.15984 3.15984 0.921265 5.92126 0.921265H37.0788C39.8402 0.921265 42.0788 3.15984 42.0788 5.92126V37.0791C42.0788 39.8405 39.8402 42.0791 37.0788 42.0791H5.92127C3.15985 42.0791 0.921265 39.8405 0.921265 37.0791V5.92127Z" fill="#F0DB4F"/>
<path d="M38.7104 32.2629C38.4089 30.3853 37.1846 28.8081 33.5579 27.3375C32.298 26.7585 30.8934 26.3439 30.4749 25.3892C30.3263 24.8335 30.3066 24.5206 30.4006 24.1842C30.6705 23.0927 31.9735 22.7524 33.0062 23.0654C33.6713 23.2883 34.3009 23.8009 34.6806 24.6185C36.4567 23.4685 36.453 23.476 37.6932 22.6857C37.2391 21.9817 36.9968 21.6569 36.6996 21.3558C35.6314 20.1626 34.1759 19.5481 31.8482 19.5952L30.6357 19.752C29.4738 20.0456 28.3665 20.6555 27.7171 21.4731C25.7688 23.6838 26.3245 27.5529 28.6953 29.1451C31.0309 30.8981 34.462 31.2969 34.9002 32.9362C35.3267 34.9431 33.4254 35.5927 31.5355 35.3619C30.1429 35.0723 29.3683 34.3644 28.5309 33.0773C26.9896 33.9692 26.9896 33.9692 25.4049 34.8806C25.7807 35.7022 26.1755 36.0741 26.8055 36.7859C29.7868 39.8099 37.2474 39.6613 38.5855 35.0841C38.6397 34.927 39.0001 33.8788 38.7104 32.2629V32.2629ZM23.2958 19.8375H19.4461L19.4304 29.7902C19.4304 31.9068 19.5398 33.8473 19.1956 34.442C18.6324 35.6118 17.173 35.4668 16.5079 35.24C15.8309 34.9072 15.4867 34.4341 15.0879 33.7654C14.9784 33.5734 14.8962 33.4248 14.8686 33.4133L11.7386 35.33C12.2591 36.3982 13.0258 37.3254 14.0079 37.9277C15.4749 38.8082 17.4465 39.0781 19.5086 38.6047C20.8507 38.2137 22.0086 37.404 22.6149 36.1714C23.4914 34.5554 23.3033 32.5996 23.2954 30.4362C23.3152 26.9068 23.2958 23.3781 23.2958 19.8375V19.8375Z" fill="#323330"/>
</svg>
