<svg width="43" height="43" viewBox="0 0 43 43" fill="none" xmlns="http://www.w3.org/2000/svg">
<path d="M3.46454 10.7219C-0.161526 15.9333 0.289884 22.7143 3.05982 28.2522C3.12557 28.3851 3.19462 28.5156 3.26267 28.6461L3.39221 28.8956L3.47309 29.0393L3.61742 29.2977C3.70356 29.4493 3.79167 29.6002 3.88176 29.7511L4.03267 29.9997C4.13261 30.1611 4.23486 30.3206 4.33941 30.4797L4.47027 30.6816C4.6146 30.8969 4.76222 31.1119 4.91477 31.323L4.92759 31.3394L5.00256 31.4407C5.13439 31.6225 5.27018 31.802 5.40761 31.9796L5.56016 32.1735C5.68279 32.3277 5.8074 32.4809 5.93431 32.6335L6.07732 32.8045C6.24795 33.0058 6.42178 33.2044 6.59876 33.4002L6.60961 33.4111L6.62967 33.4334C6.80361 33.6222 6.98029 33.8084 7.15965 33.992L7.32963 34.1633C7.4687 34.3034 7.61007 34.4411 7.75276 34.5782L7.92603 34.7426C8.11672 34.9224 8.30938 35.0987 8.50599 35.2709L8.51519 35.2782L8.61613 35.3643C8.78939 35.5142 8.96562 35.6632 9.14316 35.8091L9.36146 35.9831C9.50645 36.0995 9.65309 36.2139 9.80071 36.3263L10.0355 36.5048C10.1985 36.6248 10.3626 36.7429 10.5283 36.8583L10.7078 36.9855L10.7571 37.0207C10.9143 37.1289 11.075 37.2331 11.2358 37.3373L11.4429 37.4754C11.6895 37.6312 11.9394 37.7854 12.1922 37.9344L12.3994 38.0511C12.5851 38.1582 12.7722 38.2635 12.9616 38.3664C13.0641 38.4216 13.1693 38.4739 13.2726 38.5268C13.4064 38.5968 13.5392 38.6679 13.6753 38.7359L13.7684 38.781L13.9331 38.8605C14.1438 38.9611 14.3562 39.0601 14.5709 39.1554L14.7057 39.2159C14.9518 39.3236 15.1999 39.4267 15.4497 39.5253L15.6309 39.5966C15.8623 39.6857 16.0971 39.7739 16.3328 39.8567L16.4209 39.8873C16.6797 39.9777 16.9407 40.0615 17.2038 40.1434L17.3928 40.1999C17.6604 40.2805 17.9251 40.3768 18.2009 40.4278C35.7375 43.6258 40.8315 29.8895 40.8315 29.8895C36.5532 35.4633 28.9591 36.9336 21.7639 35.2966C21.4913 35.2351 21.227 35.1499 20.961 35.0714L20.7608 35.0105C20.5016 34.9311 20.2438 34.8473 19.9875 34.759L19.8813 34.7206C19.6527 34.6398 19.4254 34.5555 19.1994 34.4677L19.0081 34.3925C18.7608 34.2948 18.5149 34.1929 18.2719 34.0864L18.125 34.0213C17.9169 33.9273 17.7099 33.8309 17.5039 33.7323L17.3244 33.6461C17.163 33.5676 17.0032 33.484 16.8441 33.4018C16.7375 33.3456 16.6291 33.2927 16.5235 33.2342C16.3298 33.1298 16.1379 33.0222 15.9478 32.9113L15.7535 32.8028C15.5011 32.6538 15.2512 32.5007 15.0039 32.3435L14.8017 32.2087C14.6219 32.0934 14.444 31.9751 14.2681 31.854L14.0965 31.7333C13.9271 31.6136 13.759 31.492 13.5921 31.3687L13.3689 31.1997C13.2156 31.0832 13.0639 30.9646 12.9139 30.844L12.711 30.6812C12.5199 30.5246 12.331 30.3653 12.1442 30.2035L12.0821 30.1512C11.8809 29.9737 11.6823 29.7931 11.4863 29.6097L11.3183 29.4483C11.1733 29.3102 11.0307 29.1712 10.8903 29.0285L10.7226 28.8611C10.5444 28.6788 10.3693 28.4936 10.1972 28.3055L10.1712 28.2779C9.98992 28.079 9.81224 27.8769 9.63829 27.6716L9.49889 27.5059C9.36893 27.3496 9.24102 27.1915 9.11521 27.0318L8.97482 26.8569C8.8244 26.6624 8.67676 26.4658 8.53196 26.2671C4.53734 20.818 3.1019 13.3028 6.29464 7.13102M14.7208 6.33078C12.0982 10.1045 12.2409 15.1564 14.2865 19.1474C14.6289 19.8184 15.0164 20.4652 15.4464 21.0836C15.8393 21.6468 16.275 22.3168 16.7964 22.7692C16.9871 22.9781 17.1833 23.1818 17.3849 23.3801L17.5401 23.533C17.7359 23.7239 17.9363 23.91 18.1411 24.0912L18.1654 24.1123L18.1713 24.1182C18.4004 24.3177 18.6345 24.5114 18.8733 24.6992L19.0327 24.8234C19.2728 25.0084 19.5176 25.1872 19.7669 25.3597L19.7883 25.3758C19.8987 25.452 20.0112 25.5231 20.1233 25.5967L20.2821 25.7016C20.4609 25.8163 20.6421 25.9281 20.8262 26.0353L20.9035 26.08C21.0623 26.1714 21.223 26.2615 21.3845 26.3489L21.5558 26.438C21.6672 26.4962 21.7787 26.5557 21.8921 26.6123L21.9431 26.6353C22.1742 26.7491 22.4073 26.8589 22.6453 26.9624L22.8005 27.0262C22.9909 27.1071 23.1832 27.186 23.3759 27.2597L23.6224 27.3501C23.7977 27.4152 23.9736 27.4743 24.1508 27.5339L24.3898 27.6105C24.642 27.6887 24.8912 27.7877 25.1539 27.8314C38.6938 30.0746 41.8199 19.6495 41.8199 19.6495C39.0022 23.7076 33.5452 25.6441 27.7223 24.1323C27.4649 24.0647 27.2091 23.9908 26.9552 23.9107L26.7248 23.8361C26.5449 23.7779 26.3661 23.7163 26.1885 23.6513L25.9466 23.5613C25.7528 23.4869 25.5604 23.4093 25.3692 23.3285L25.2137 23.2627C24.9756 23.1591 24.7402 23.0496 24.5075 22.9343C24.3882 22.8761 24.2708 22.8146 24.1531 22.7541L23.9486 22.6489C23.7977 22.5672 23.6483 22.4828 23.5005 22.3958L23.3933 22.3349C23.2101 22.2281 23.0292 22.1176 22.8505 22.0035L22.6867 21.8944C22.5688 21.8181 22.4516 21.7406 22.3353 21.6619C22.0871 21.4894 21.8431 21.3109 21.6034 21.1267L21.4387 20.9968C18.89 18.9847 16.8694 16.2342 15.909 13.1157C14.9023 9.88188 15.1193 6.25154 16.8635 3.30505M24.1879 3.05025C22.642 5.32538 22.4901 8.15088 23.5629 10.6634C24.6942 13.3307 27.0121 15.4227 29.7176 16.4153C29.8291 16.4564 29.9409 16.4932 30.0536 16.5317L30.2019 16.5787C30.3614 16.6287 30.5195 16.6869 30.6842 16.7181C38.1606 18.1628 40.1885 12.8816 40.728 12.1041C38.9519 14.6616 35.9667 15.2755 32.3038 14.3864C32.0144 14.3164 31.6965 14.2119 31.4177 14.1129C31.0596 13.9857 30.7083 13.8398 30.3653 13.676C29.7146 13.3627 29.0965 12.9856 28.5202 12.5502C25.2426 10.063 23.2065 5.31913 25.3452 1.45569" fill="#0868AC"/>
</svg>
