<svg width="43" height="43" viewBox="0 0 43 43" fill="none" xmlns="http://www.w3.org/2000/svg">
<path fill-rule="evenodd" clip-rule="evenodd" d="M29.4031 14.9004C29.9308 16.4269 30.3109 17.9853 30.4358 19.6006C30.591 21.6045 30.52 23.5942 30.0975 25.5652C30.086 25.6195 30.0617 25.6704 30.0436 25.723C29.9111 25.7234 29.776 25.7069 29.6464 25.727C28.5519 25.8989 27.4584 26.0771 26.3649 26.2543C25.2346 26.4375 24.1026 26.6134 22.9742 26.809C22.5745 26.878 22.0796 26.7955 21.9182 27.3485C21.9136 27.3636 21.8676 27.3663 21.841 27.3748L21.8955 24.0703L21.84 16.0968L22.3667 16.0064C23.2281 15.8653 24.0895 15.7223 24.9515 15.5852C25.9802 15.4218 27.01 15.263 28.0394 15.1036C28.4934 15.0329 28.9481 14.9681 29.4031 14.9004V14.9004Z" fill="#439934"/>
<path fill-rule="evenodd" clip-rule="evenodd" d="M20.7534 37.008C20.1978 36.5303 19.6228 36.0736 19.0902 35.5713C16.2242 32.8681 14.128 29.6865 13.0956 25.8507C12.8112 24.795 12.6215 23.7222 12.5607 22.6313C12.5179 21.8679 12.4561 21.0976 12.51 20.3381C12.6537 18.3181 12.9457 16.3175 13.5381 14.3718L13.5707 14.3264C13.6282 14.403 13.7111 14.4707 13.7403 14.5572C14.3186 16.2603 14.8927 17.9647 15.4638 19.67C17.2582 25.0291 19.0504 30.3894 20.8478 35.7472C20.883 35.8517 20.9741 35.9375 21.0395 36.0319L20.7534 37.008V37.008Z" fill="#45A538"/>
<path fill-rule="evenodd" clip-rule="evenodd" d="M29.4032 14.9004C28.9481 14.9682 28.4931 15.0329 28.0391 15.103C27.0097 15.2624 25.98 15.4212 24.9512 15.5846C24.0892 15.7217 23.2278 15.8647 22.3664 16.0058L21.8397 16.0962L21.8357 15.7526C21.8183 15.4702 21.7884 15.1881 21.7851 14.9057C21.7624 13.1047 21.7483 11.3036 21.7259 9.5026C21.7121 8.37523 21.6914 7.24819 21.6684 6.12114C21.6542 5.42085 21.6391 4.72023 21.6076 4.02092C21.5905 3.64513 21.53 3.27131 21.5053 2.89552C21.4915 2.67951 21.5106 2.46187 21.5148 2.24487C21.7835 2.76533 22.0461 3.28972 22.3223 3.80623C22.7586 4.62291 23.4536 5.22457 24.0793 5.88114C26.5527 8.47584 28.3087 11.4927 29.4032 14.9004V14.9004Z" fill="#46A037"/>
<path fill-rule="evenodd" clip-rule="evenodd" d="M21.8407 27.3745C21.8673 27.366 21.9137 27.3633 21.9179 27.3482C22.0794 26.7952 22.5742 26.8777 22.974 26.8087C24.1023 26.6134 25.2343 26.4372 26.3646 26.254C27.4582 26.0768 28.5517 25.8986 29.6462 25.7267C29.7757 25.7063 29.9108 25.7231 30.0433 25.7227C29.8388 26.4526 29.6777 27.1983 29.4183 27.9081C29.1237 28.7133 28.7673 29.499 28.3889 30.2694C27.8224 31.4183 27.1212 32.4959 26.3002 33.4792C25.6693 34.238 24.966 34.9393 24.2611 35.632C23.8715 36.0151 23.4122 36.3271 22.9848 36.6713L22.874 36.5957L22.4749 36.2544L22.062 35.3493C21.7799 34.2934 21.626 33.2074 21.6036 32.1148L21.6112 31.9303L21.6674 31.1327C21.6862 30.8605 21.7111 30.5886 21.7227 30.3157C21.7651 29.3353 21.8019 28.3549 21.8407 27.3745V27.3745Z" fill="#409433"/>
<path fill-rule="evenodd" clip-rule="evenodd" d="M21.8406 27.3746C21.8018 28.355 21.765 29.3354 21.7233 30.3162C21.7118 30.589 21.6868 30.8609 21.668 31.1332L21.4165 31.2282C20.8579 29.5837 20.299 27.9565 19.7523 26.3252C18.8481 23.6262 17.9548 20.923 17.052 18.2235C16.3228 16.0445 15.5886 13.8672 14.8492 11.6917C14.8147 11.5897 14.7154 11.5102 14.6464 11.4201L16.256 8.46045C16.3113 8.55645 16.3843 8.64621 16.4191 8.74944C17.1646 10.9529 17.9064 13.1577 18.6443 15.3638C19.603 18.234 20.5558 21.1065 21.5138 23.977C21.552 24.0918 21.6151 24.1976 21.6753 24.3262L21.8955 24.0697L21.8406 27.3746V27.3746Z" fill="#4FAA41"/>
<path fill-rule="evenodd" clip-rule="evenodd" d="M14.6467 11.4204C14.7157 11.5105 14.8147 11.5901 14.8495 11.692C15.5889 13.8675 16.3231 16.0448 17.0523 18.2238C17.9552 20.9234 18.8484 23.6265 19.7526 26.3255C20.299 27.9565 20.8579 29.584 21.4168 31.2285L21.6683 31.1335L21.6121 31.9311L21.5612 32.1149C21.4737 32.9881 21.4001 33.8633 21.2935 34.7346C21.24 35.1712 21.1262 35.5999 21.0397 36.0323C20.9746 35.9379 20.8832 35.8521 20.8481 35.7475C19.0506 30.3895 17.2585 25.0294 15.464 19.6704C14.8931 17.9649 14.3186 16.2606 13.7406 14.5576C13.7113 14.4711 13.6288 14.4034 13.5709 14.3268L14.6467 11.4204V11.4204Z" fill="#4AA73C"/>
<path fill-rule="evenodd" clip-rule="evenodd" d="M21.8952 24.07L21.675 24.3265C21.6148 24.1979 21.5517 24.0917 21.5135 23.9773C20.5558 21.1068 19.6027 18.2343 18.644 15.3641C17.906 13.158 17.1643 10.9532 16.4188 8.74974C16.3843 8.6465 16.3113 8.55642 16.2557 8.46074L18.2465 5.84204C18.3093 5.92588 18.3987 6.00051 18.4312 6.09487C18.9839 7.71278 19.5317 9.33266 20.0761 10.9535C20.5847 12.4672 21.0858 13.9832 21.6003 15.4949C21.6348 15.5962 21.7548 15.6678 21.8351 15.7533L21.839 16.0969C21.8581 18.7541 21.8768 21.4122 21.8952 24.07V24.07Z" fill="#57AE47"/>
<path fill-rule="evenodd" clip-rule="evenodd" d="M21.8357 15.7527C21.7554 15.6672 21.6354 15.5955 21.6009 15.4942C21.0864 13.9825 20.5853 12.4665 20.0767 10.9529C19.5323 9.33199 18.9845 7.71244 18.4318 6.09421C18.3993 5.99985 18.3099 5.92521 18.2471 5.84138C18.8944 5.2075 19.5217 4.55093 20.1951 3.94631C20.7938 3.40909 21.2751 2.83308 21.2971 1.98418C21.2981 1.949 21.3165 1.91382 21.3448 1.81519L21.5154 2.24457C21.5112 2.46189 21.4918 2.67921 21.5059 2.89521C21.5306 3.27101 21.5911 3.64482 21.6081 4.02062C21.6397 4.71992 21.6548 5.42054 21.669 6.12084C21.6917 7.24788 21.7124 8.37492 21.7265 9.5023C21.7485 11.3033 21.763 13.1044 21.7857 14.9054C21.7883 15.1885 21.8179 15.4702 21.8357 15.7527V15.7527Z" fill="#60B24F"/>
<path fill-rule="evenodd" clip-rule="evenodd" d="M21.0391 36.032C21.1256 35.5996 21.2393 35.1706 21.2929 34.7343C21.3998 33.8634 21.4731 32.9878 21.5605 32.1146L21.5822 32.1113L21.6039 32.1149C21.6263 33.2076 21.7802 34.2936 22.0622 35.3494C22.0044 35.4257 21.9225 35.4938 21.8919 35.5799C21.6529 36.2539 21.4277 36.9332 21.1874 37.6071C21.1545 37.6992 21.0631 37.7709 20.9986 37.8518L20.7531 37.0081L21.0391 36.032V36.032Z" fill="#A9AA88"/>
<path fill-rule="evenodd" clip-rule="evenodd" d="M20.999 37.8519C21.0635 37.771 21.1552 37.6994 21.1877 37.6073C21.4281 36.9333 21.6536 36.2544 21.8923 35.5801C21.9229 35.4939 22.0044 35.4259 22.0626 35.3496L22.4752 36.2551C22.3937 36.3708 22.2812 36.475 22.2359 36.6039L21.4455 38.9247C21.413 39.0178 21.3018 39.0835 21.2275 39.1621L20.999 37.8519V37.8519Z" fill="#B6B598"/>
<path fill-rule="evenodd" clip-rule="evenodd" d="M21.2275 39.1619C21.3022 39.0837 21.413 39.0176 21.4455 38.9245L22.2359 36.6037C22.2809 36.4752 22.3937 36.3706 22.4752 36.2549L22.8747 36.5958C22.6817 36.7865 22.5745 37.0068 22.639 37.2853L22.5177 37.6824C22.4624 37.7505 22.3825 37.8097 22.3552 37.8876C22.0794 38.6776 21.816 39.472 21.5382 40.262C21.5031 40.3623 21.4054 40.4409 21.3364 40.529C21.3005 40.073 21.264 39.6179 21.2275 39.1619V39.1619Z" fill="#C2C1A7"/>
<path fill-rule="evenodd" clip-rule="evenodd" d="M21.3367 40.5289C21.4054 40.4405 21.503 40.3619 21.5385 40.2619C21.8164 39.4722 22.0797 38.6779 22.3556 37.8875C22.3828 37.8099 22.4624 37.7504 22.518 37.6824L22.3506 39.5054C22.3059 39.5571 22.2411 39.6021 22.2198 39.6623C22.0307 40.1929 21.8525 40.7275 21.6628 41.2581C21.6237 41.3676 21.5487 41.4643 21.4902 41.5665C21.4383 41.4985 21.3452 41.4327 21.3409 41.3617C21.3242 41.0852 21.3357 40.8067 21.3367 40.5289V40.5289Z" fill="#CECDB7"/>
<path fill-rule="evenodd" clip-rule="evenodd" d="M21.4899 41.5665C21.5484 41.4639 21.6234 41.3672 21.6625 41.2581C21.8525 40.7278 22.0304 40.1932 22.2194 39.6622C22.2408 39.602 22.3059 39.5573 22.3503 39.5054L22.3542 40.7021L21.9538 41.7292L21.4899 41.5665V41.5665Z" fill="#DBDAC7"/>
<path fill-rule="evenodd" clip-rule="evenodd" d="M21.9537 41.7297L22.3542 40.7026L22.4367 41.9178L21.9537 41.7297V41.7297Z" fill="#EBE9DC"/>
<path fill-rule="evenodd" clip-rule="evenodd" d="M22.6389 37.2856C22.5745 37.0072 22.6813 36.7866 22.8746 36.5962L22.9854 36.6718L22.6389 37.2856V37.2856Z" fill="#CECDB7"/>
<path fill-rule="evenodd" clip-rule="evenodd" d="M21.6039 32.1153L21.5822 32.1117L21.5605 32.1149L21.6115 31.9312L21.6039 32.1153V32.1153Z" fill="#4FAA41"/>
</svg>
