<svg width="43" height="43" viewBox="0 0 43 43" fill="none" xmlns="http://www.w3.org/2000/svg">
<path d="M37.3458 10.1147L22.8327 1.69637C21.9184 1.17559 20.7206 1.17559 19.7991 1.69637L5.17247 10.1147C4.22921 10.6575 3.58777 11.6777 3.58777 12.7689V29.5832C3.58777 30.6744 4.24269 31.6949 5.18628 32.2407L9.04249 34.4395C10.8925 35.3509 11.4051 35.3509 12.2467 35.3509C14.9868 35.3509 16.4097 33.6942 16.4097 30.8046V14.2047C16.41 13.9702 16.5563 13.6214 16.3259 13.6214H14.4775C14.2434 13.6214 13.7798 13.9702 13.7798 14.2043V30.8042C13.7798 32.0852 12.591 33.3598 10.4257 32.2772L6.44023 29.9715C6.30149 29.8958 6.21798 29.7436 6.21798 29.5832V12.7689C6.21798 12.6104 6.3702 12.4513 6.51092 12.3701L21.1013 3.96624C21.173 3.92819 21.2528 3.90829 21.334 3.90829C21.4151 3.90829 21.4949 3.92819 21.5666 3.96624L36.0205 12.3681C36.159 12.4513 36.1369 12.6055 36.1369 12.7689V29.5832C36.1369 29.7436 36.1672 29.8998 36.0307 29.977L21.5209 38.3858C21.3966 38.4605 21.2348 38.4605 21.0984 38.3858L17.3776 36.1669C17.2655 36.1018 17.1304 36.0785 17.0225 36.1386C15.9885 36.7248 15.7965 36.8028 14.8266 37.1391C14.5876 37.2223 14.2352 37.3666 14.9608 37.7733L19.826 40.6514C20.2905 40.9198 20.8174 41.0611 21.3538 41.0611C21.8923 41.0619 22.4215 40.9206 22.8879 40.6514L37.3462 32.2407C38.2901 31.691 38.7671 30.6744 38.7671 29.5832V12.7689C38.7668 11.6777 38.2898 10.6601 37.3458 10.1147V10.1147ZM25.8548 26.9188C21.9992 26.9188 21.1503 25.8552 20.8673 23.9381C20.8337 23.7316 20.6588 23.4847 20.4484 23.4847H18.5645C18.3314 23.4847 18.1437 23.7674 18.1437 23.9996C18.1437 26.4542 19.4785 29.4283 25.8548 29.4283C30.4701 29.4283 33.1168 27.6348 33.1168 24.4608C33.1168 21.3138 30.9906 20.4879 26.5143 19.8954C21.9897 19.2974 21.5301 18.9953 21.5301 17.9353C21.5301 17.0614 21.9193 15.8959 25.2696 15.8959C28.2627 15.8959 29.3661 16.5383 29.8202 18.556C29.8593 18.7457 30.0325 18.8818 30.2282 18.8818H32.1199C32.2363 18.8818 32.3471 18.8348 32.4287 18.7516C32.5079 18.6622 32.5493 18.5501 32.5391 18.4298C32.2455 14.9549 29.9375 13.3357 25.2692 13.3357C21.1161 13.3357 18.6391 15.0894 18.6391 18.029C18.6391 21.2175 21.104 22.0986 25.0904 22.4928C29.8593 22.9603 30.2301 23.6573 30.2301 24.5953C30.2301 26.2247 28.9223 26.9188 25.8548 26.9188Z" fill="#83CD29"/>
</svg>
