<svg width="43" height="43" viewBox="0 0 43 43" fill="none" xmlns="http://www.w3.org/2000/svg">
<path d="M21.2998 4.48525C19.9117 4.49182 18.5868 4.60985 17.4203 4.81632C13.9846 5.42324 13.3612 6.69364 13.3612 9.03682V12.1309H21.4797V13.1623H10.3141C7.95482 13.1623 5.88879 14.5803 5.24242 17.2789C4.49676 20.371 4.46388 22.301 5.24242 25.5299C5.81942 27.9336 7.19765 29.6458 9.55728 29.6458H12.3489V25.9366C12.3489 23.2567 14.6671 20.8931 17.4206 20.8931H25.5299C27.7873 20.8931 29.5889 19.0342 29.5889 16.7677V9.03715C29.5889 6.83665 27.7327 5.1839 25.5299 4.81665C24.1346 4.58454 22.6876 4.479 21.2998 4.48525V4.48525ZM16.9094 6.97375C17.7477 6.97375 18.4329 7.66977 18.4329 8.5259C18.4329 9.37842 17.7481 10.0679 16.9094 10.0679C16.0677 10.0679 15.3861 9.37842 15.3861 8.5259C15.3858 7.66977 16.0677 6.97375 16.9094 6.97375V6.97375Z" fill="url(#paint0_linear_155_34)"/>
<path d="M30.6012 13.1623V16.7677C30.6012 19.5623 28.2314 21.9147 25.5295 21.9147H17.4203C15.1991 21.9147 13.3612 23.816 13.3612 26.0405V33.7716C13.3612 35.9715 15.274 37.2659 17.4203 37.8968C19.99 38.652 22.4545 38.7888 25.5295 37.8968C27.5732 37.3047 29.5886 36.1138 29.5886 33.7716V30.6772H21.4797V29.6455H33.6483C36.0076 29.6455 36.8874 28 37.708 25.5296C38.5556 22.9865 38.5191 20.5407 37.708 17.2786C37.1248 14.9295 36.0112 13.162 33.6483 13.162H30.6012V13.1623ZM26.0401 32.7399C26.8821 32.7399 27.5637 33.4294 27.5637 34.2826C27.5637 35.138 26.8818 35.834 26.0401 35.834C25.2017 35.834 24.5169 35.138 24.5169 34.2826C24.5169 33.4294 25.2017 32.7399 26.0401 32.7399V32.7399Z" fill="url(#paint1_linear_155_34)"/>
<path opacity="0.444" d="M32.4513 39.7791C32.4513 40.9439 27.5801 41.8885 21.5717 41.8885C15.563 41.8885 10.6919 40.9439 10.6919 39.7791C10.6919 38.6139 15.5627 37.6693 21.5717 37.6693C27.5801 37.6693 32.4513 38.6136 32.4513 39.7791Z" fill="url(#paint2_radial_155_34)"/>
<defs>
<linearGradient id="paint0_linear_155_34" x1="3.85692" y1="5.45271" x2="22.582" y2="21.4213" gradientUnits="userSpaceOnUse">
<stop stop-color="#5A9FD4"/>
<stop offset="1" stop-color="#306998"/>
</linearGradient>
<linearGradient id="paint1_linear_155_34" x1="29.627" y1="31.3477" x2="22.9119" y2="21.9308" gradientUnits="userSpaceOnUse">
<stop stop-color="#FFD43B"/>
<stop offset="1" stop-color="#FFE873"/>
</linearGradient>
<radialGradient id="paint2_radial_155_34" cx="0" cy="0" r="1" gradientUnits="userSpaceOnUse" gradientTransform="translate(21.5278 39.7187) rotate(-90) scale(2.11019 9.27603)">
<stop stop-color="#B8B8B8" stop-opacity="0.498"/>
<stop offset="1" stop-color="#7F7F7F" stop-opacity="0"/>
</radialGradient>
</defs>
</svg>
