<svg width="43" height="43" viewBox="0 0 43 43" fill="none" xmlns="http://www.w3.org/2000/svg">
<path fill-rule="evenodd" clip-rule="evenodd" d="M0.700806 18.9711C0.700806 19.2022 0.768862 19.3547 0.807 19.503C1.05556 20.4673 1.58982 21.2949 2.2237 22.0497C3.12652 23.1255 4.23219 23.9915 5.36483 24.8058C6.34721 25.5121 7.34965 26.2025 8.33598 26.9034C8.5053 27.0238 8.66542 27.1622 8.8492 27.3098C8.69106 27.3953 8.55955 27.4706 8.42278 27.5399C7.12115 28.2001 5.86884 28.9402 4.71451 29.8368C4.01882 30.3773 3.34614 30.9516 2.87106 31.7022C2.10665 32.9095 1.83607 34.1957 2.40584 35.569C2.5722 35.9701 2.82602 36.3166 3.18405 36.5727C3.30011 36.6556 3.43031 36.7378 3.56609 36.77C3.91394 36.8519 4.26836 36.9054 4.62048 36.9702L5.61766 36.9696C6.72037 36.8713 7.72413 36.4935 8.63122 35.8675C10.0489 34.8891 11.004 33.5772 11.4146 31.8936C11.7132 30.6699 11.7253 29.4449 11.3735 28.2268C11.3399 28.1139 11.301 28.0027 11.2572 27.8934C11.2144 27.7839 11.1641 27.6774 11.1049 27.5409L13.3656 26.241L13.3995 26.2699C13.3584 26.4044 13.3146 26.5385 13.2775 26.6743C13.0089 27.6553 12.8304 28.6535 12.8945 29.6717C12.9629 30.7567 13.2657 31.7723 13.9009 32.6787C14.4144 33.4119 15.6381 33.4392 16.1839 32.7034C16.3775 32.442 16.5653 32.1688 16.7063 31.8772C17.0749 31.116 17.4161 30.3414 17.7682 29.5721L17.8297 29.4314C17.8044 29.7957 17.7748 30.1156 17.7613 30.4358C17.7403 30.9359 17.7696 31.433 17.9405 31.9087C18.0868 32.3157 18.3357 32.6199 18.8019 32.6734C19.1208 32.7099 19.375 32.564 19.6094 32.3789C19.9726 32.0919 20.2736 31.734 20.4941 31.3271C21.1191 30.1794 21.7609 29.0385 22.3274 27.8618C22.9402 26.5891 23.4761 25.2793 24.0453 23.9849L24.1393 23.7554C24.2738 24.2838 24.3675 24.8012 24.5401 25.2911C24.7406 25.8596 24.9888 26.4145 25.2591 26.9541C25.387 27.2089 25.3722 27.3742 25.195 27.5879C24.4533 28.4822 23.7244 29.3873 22.9948 30.2915C22.8334 30.491 22.6726 30.6942 22.5381 30.9122C22.4566 31.0498 22.4029 31.2022 22.3803 31.3606C22.3577 31.5065 22.3924 31.6554 22.4772 31.7762C22.5619 31.897 22.6902 31.9803 22.835 32.0087C23.1273 32.0716 23.4271 32.093 23.7254 32.0721C24.7436 31.9972 25.6681 31.6398 26.4854 31.0342C27.5444 30.2497 27.8844 29.1792 27.6279 27.9105C27.5586 27.5662 27.4359 27.2316 27.3166 26.8998C27.263 26.7502 27.2594 26.6453 27.357 26.5059C28.2036 25.297 28.9269 24.0145 29.5996 22.7023C29.6262 22.6507 29.6535 22.5991 29.7002 22.5439C29.9182 23.6781 30.2463 24.7713 30.8342 25.7632C30.5343 26.0522 30.2374 26.3143 29.9688 26.6029C29.3773 27.2388 28.8645 27.9292 28.5968 28.7712C28.4818 29.1342 28.3933 29.5031 28.4446 29.8907C28.5242 30.4927 29.0173 30.8839 29.6095 30.7468C30.8766 30.4536 31.9704 29.8565 32.7697 28.7988C33.3075 28.0867 33.3565 27.2924 33.1313 26.4602C33.0695 26.234 32.9962 26.0115 32.9173 25.7521C33.2299 25.6551 33.5347 25.5387 33.85 25.4667C35.487 25.0932 37.1062 25.1583 38.6837 25.7494C39.6046 26.0946 40.3486 26.6723 40.7898 27.581C41.3287 28.692 41.0308 29.746 39.9837 30.4483C39.886 30.5137 39.7742 30.5653 39.6934 30.6472C39.6675 30.6772 39.6481 30.7123 39.6365 30.7502C39.6249 30.7882 39.6213 30.8281 39.626 30.8675C39.6329 30.9079 39.7397 30.9586 39.8012 30.9579C40.1454 30.9553 40.4246 30.7748 40.6925 30.5893C41.3639 30.1248 41.8538 29.4998 41.9593 28.6769L41.98 28.615L41.9547 28.0791C41.9445 28.0482 41.9623 28.0177 41.96 27.9943C41.8173 26.7959 41.1771 25.8665 40.246 25.1379C39.1677 24.2946 37.8943 23.9474 36.5476 23.8925C35.4554 23.8455 34.3646 24.0134 33.3371 24.3867C33.0422 24.4935 32.7499 24.6201 32.4534 24.7394C32.4136 24.6674 32.3709 24.5984 32.3357 24.527C32.0312 23.9037 31.6623 23.3079 31.5808 22.5932C31.5229 22.0856 31.4519 21.5786 31.5726 21.0765C31.6886 20.5936 31.8399 20.1188 31.9822 19.6424C32.0556 19.3972 32.0039 19.2597 31.7699 19.1493C31.6883 19.1086 31.6012 19.08 31.5114 19.0644C30.9361 18.9809 30.3686 19.0286 29.8113 19.1907C29.6141 19.2482 29.4707 19.3587 29.427 19.577C29.402 19.7023 29.351 19.8223 29.3155 19.9459C29.1699 20.4598 29.0667 20.9835 28.8312 21.4731C28.2414 22.701 27.5681 23.8826 26.879 25.0557C26.8043 25.1823 26.7258 25.3066 26.6317 25.4601C26.3898 24.9538 26.1317 24.4994 26.0534 23.9668C25.965 23.3645 25.8953 22.7632 26.0452 22.1655C26.1567 21.7196 26.3023 21.282 26.4364 20.8421C26.4999 20.633 26.4706 20.5232 26.2813 20.4131C26.1856 20.3575 26.0774 20.3082 25.9696 20.2921C25.3796 20.2022 24.7768 20.2515 24.2093 20.4361C24.0308 20.494 23.9371 20.6094 23.8825 20.7935C23.7221 21.3366 23.5853 21.8929 23.3601 22.4094C22.4481 24.5004 21.5097 26.5806 20.5724 28.6604C20.3768 29.0947 20.1476 29.5139 19.927 29.9367C19.8711 30.0439 19.7896 30.1383 19.7199 30.2389C19.664 30.1728 19.6423 30.1274 19.6426 30.082C19.6442 29.8147 19.6124 29.5396 19.6633 29.2811C19.8198 28.4996 19.9928 27.7214 20.1821 26.9472C20.3367 26.3074 20.5165 25.6735 20.6878 25.038C20.7453 24.8252 20.7463 24.6263 20.5934 24.4475C20.3367 24.148 19.8001 24.0822 19.4818 24.313L19.3411 24.3926L19.3684 24.1657C19.4355 23.6795 19.449 23.1948 19.3155 22.7158C19.1491 22.1188 18.723 21.7752 18.1036 21.7943C17.8149 21.8031 17.5118 21.8525 17.2445 21.9577C16.1204 22.3982 15.2561 23.1784 14.5203 24.1171C14.4521 24.2042 14.3675 24.2772 14.2714 24.3321C13.3202 24.8594 12.3661 25.3802 11.4123 25.903L10.3507 26.4846C10.066 26.213 9.80726 25.9312 9.51366 25.6922C8.61709 24.961 7.70605 24.2479 6.80323 23.5249C6.00298 22.8842 5.22773 22.2167 4.63462 21.3682C4.1934 20.7369 3.90901 20.0462 3.88172 19.2657C3.8472 18.2711 4.12929 17.3624 4.6356 16.5164C5.28329 15.4341 6.16671 14.5655 7.13792 13.7787C8.16535 12.9469 9.27661 12.2407 10.4283 11.596C12.0396 10.6941 13.697 9.89588 15.474 9.36885C17.2961 8.82834 19.1448 8.51897 21.0517 8.73464C21.8014 8.81947 22.5293 8.99109 23.1977 9.35767C23.7096 9.63812 24.1294 10.0054 24.3247 10.5794C24.5174 11.1442 24.5115 11.7166 24.378 12.2903C24.1067 13.4522 23.4705 14.41 22.67 15.2658C21.3568 16.6687 19.755 17.6237 17.9517 18.2547C16.9148 18.6179 15.836 18.848 14.7412 18.9395C13.844 19.0148 12.9655 18.9352 12.1159 18.6232C11.5534 18.4164 11.0635 18.1001 10.6696 17.6412C10.5993 17.559 10.5092 17.4699 10.378 17.5468C10.2495 17.6224 10.2268 17.7447 10.2698 17.8687C10.3418 18.0745 10.4083 18.2889 10.5204 18.473C10.8021 18.9349 11.2131 19.2699 11.6655 19.5573C12.5345 20.1099 13.5057 20.2957 14.5127 20.3388C16.0409 20.4049 17.5319 20.1767 19.0018 19.7667C21.1004 19.1815 22.9251 18.1478 24.3885 16.5171C25.6069 15.1592 26.4772 13.6268 26.6636 11.7765C26.7547 10.8733 26.6577 9.98859 26.2349 9.16468C25.7763 8.27206 25.047 7.60826 24.1751 7.15093C22.9054 6.48516 21.535 6.09753 20.1206 6.09753H18.7036C16.9907 6.09753 15.3346 6.5884 13.725 7.17395C12.5065 7.61746 11.3117 8.14087 10.1518 8.72018C7.62582 9.98235 5.27343 11.5042 3.34121 13.5969C2.37855 14.6395 1.56352 15.7898 1.09468 17.1444C0.953176 17.5488 0.831277 17.9598 0.729409 18.376M9.88222 30.2162C9.77274 31.6822 9.10828 32.8707 8.02233 33.8334C7.41146 34.3745 6.71084 34.7599 5.89482 34.8953C5.59892 34.9443 5.29611 34.9561 5.00909 34.8335C4.59977 34.6586 4.50804 34.2953 4.50015 33.9083C4.48798 33.2915 4.70399 32.7339 5.00022 32.2033C5.38686 31.5116 5.95367 30.9842 6.55895 30.4917C7.5124 29.7155 8.54673 29.0586 9.60605 28.4385L9.68594 28.4056C9.84967 29.0106 9.92759 29.6079 9.88222 30.2162V30.2162ZM18.1536 23.8448C18.0763 24.313 17.9797 24.7815 17.8429 25.2352C17.3701 26.8058 16.7629 28.3277 16.1063 29.8292C15.985 30.107 15.8084 30.3605 15.6549 30.6239C15.6288 30.6643 15.5975 30.7013 15.5618 30.7337C15.3718 30.9214 15.1916 30.9115 15.0956 30.6659C14.9838 30.3806 14.9151 30.0751 14.8559 29.773C14.8162 29.5701 14.8257 29.3571 14.8132 29.1493C14.826 27.6718 15.2768 26.3291 16.0415 25.0791C16.3568 24.5635 16.7001 24.0723 17.2245 23.7462C17.3876 23.6448 17.5641 23.5666 17.7489 23.5141C18.0283 23.4355 18.1999 23.5647 18.1536 23.8448V23.8448ZM23.7967 31.0345L25.8249 28.6663C25.9094 29.5458 24.4145 31.3015 23.7967 31.0345ZM30.2746 29.4409C30.1312 29.5231 29.9751 29.5823 29.8281 29.6582C29.6936 29.7279 29.6492 29.6576 29.6453 29.5419C29.6433 29.4617 29.6536 29.3818 29.6759 29.3048C29.9497 28.3389 30.4538 27.5143 31.2037 26.8436L31.2563 26.8166C31.613 27.8145 31.2007 28.9103 30.2746 29.4409Z" fill="#CB6699"/>
</svg>
