<svg width="43" height="43" viewBox="0 0 43 43" fill="none" xmlns="http://www.w3.org/2000/svg">
<path d="M1.66036 15.2674C1.66036 15.2674 0.66515 14.5471 1.86091 13.5864L4.64499 11.0897C4.64499 11.0897 5.4426 10.2484 6.28525 10.9819L31.9873 30.4875V39.8411C31.9873 39.8411 31.9745 41.3101 30.0946 41.1483L1.66036 15.2674Z" fill="#2489CA"/>
<path d="M8.28619 21.2959L1.66038 27.3332C1.66038 27.3332 0.979818 27.8405 1.66038 28.7486L4.73641 31.5521C4.73641 31.5521 5.46695 32.3395 6.5473 31.4442L13.5696 26.1056L8.28619 21.2959Z" fill="#1070B3"/>
<path d="M19.9167 21.3459L32.066 12.0464L31.9874 2.74305C31.9874 2.74305 31.4686 0.712532 29.7376 1.77021L13.5697 16.5194L19.9167 21.3459Z" fill="#0877B9"/>
<path d="M30.0943 41.1599C30.7995 41.8841 31.655 41.6464 31.655 41.6464L41.1227 36.9706C42.3349 36.1421 42.1653 35.1147 42.1653 35.1147V7.18681C42.1653 5.95883 40.912 5.53504 40.912 5.53504L32.7054 1.56967C30.9126 0.45874 29.7375 1.77023 29.7375 1.77023C29.7375 1.77023 31.2476 0.679677 31.9874 2.7434V39.6705C31.9874 39.9246 31.9334 40.1735 31.8256 40.3984C31.6099 40.8363 31.1398 41.2434 30.016 41.0727L30.0943 41.1599Z" fill="#3C99D4"/>
</svg>
